<svg version="1.1" xmlns="http://www.w3.org/2000/svg" xmlns:xlink="http://www.w3.org/1999/xlink" width="627.40778" height="517.99508" viewBox="0,0,627.40778,517.99508"><g transform="translate(44.29173,63.96939)"><g data-paper-data="{&quot;isPaintingLayer&quot;:true}" fill-rule="nonzero" stroke-linejoin="miter" stroke-miterlimit="10" stroke-dasharray="" stroke-dashoffset="0" style="mix-blend-mode: normal"><path d="M-44.04173,453.77569v-503.8698h626.90778v503.8698z" fill="#63aa59" stroke="#000000" stroke-width="0.5" stroke-linecap="butt"/><path d="M16.95461,-43.21939c0,0 -2.6543,83.4384 23.93995,111.05782c11.432,11.87268 90.76578,-44.78625 117.13833,-26.13805c56.59492,40.01862 -22.39954,45.20376 -38.93431,82.38788c-13.51383,30.3905 -33.62053,62.23328 -19.75119,76.27935c17.87197,18.09971 83.94439,3.67113 108.25533,-10.45364c14.64579,-8.50928 66.70823,-10.44085 96.64748,-43.9767c32.78008,-36.71794 -24.7664,-93.38806 60.72229,-91.17986c77.21946,1.99461 140.9741,111.54027 -37.04621,168.88936c-0.97926,0.31547 -49.38797,10.63493 -55.22836,35.95859c-30.29852,39.20959 97.68542,-1.56524 138.35049,41.04019c43.35773,45.42658 9.9062,107.13508 9.9062,107.13508" fill="none" stroke="#a0a0a0" stroke-width="41.5" stroke-linecap="round"/><path d="M41.47242,19.7822l-39.66667,0.33333" fill="none" stroke="#dcdcdc" stroke-width="1.5" stroke-linecap="round"/><text transform="translate(6.13909,17.86554) scale(0.2472,0.2472)" font-size="40" xml:space="preserve" fill="#dcdcdc" fill-rule="nonzero" stroke="none" stroke-width="1" stroke-linecap="butt" stroke-linejoin="miter" stroke-miterlimit="10" stroke-dasharray="" stroke-dashoffset="0" font-family="Sans Serif" font-weight="normal" text-anchor="start" style="mix-blend-mode: normal"><tspan x="0" dy="0">START</tspan></text><path d="M291.79777,255.39386c0.14582,-4.6047 2.24756,-8.7077 5.99526,-11.2235c0.6123,-0.41103 1.26853,-0.7797 1.96735,-1.10126c1.02689,-0.47253 2.05227,-0.77048 3.07917,-0.95196c0.52033,-0.09573 1.0511,-0.16162 1.59047,-0.19583c2.50496,-0.18693 5.02814,0.13845 7.61306,0.13845c1.65652,0 4.08627,1.14372 5.60336,0.58411c8.13916,-3.0023 9.61068,-3.87062 19.29598,-5.22367c2.86344,-0.40002 6.20554,-2.56884 9.11001,-2.11045c3.83969,0.60599 10.02995,3.1883 11.32009,7.54673c0.76492,2.58407 1.75317,5.23331 1.60368,7.92407c-0.59332,10.67974 -13.97727,12.15194 -21.67845,13.86332c-1.29914,0.2887 -2.65705,-0.22569 -3.97073,0.29879c-7.53625,3.00882 -12.37391,6.05997 -21.02927,4.20121c-4.13113,-0.88717 -11.14474,1.19128 -14.38559,-2.44758z" fill="#00b8e2" stroke="none" stroke-width="0.5" stroke-linecap="butt"/><path d="M121.53367,198.13882c-3.22524,-0.34416 -12.39407,-2.30094 -12.39407,-13.42655c0,-7.34408 3.99522,-10.69293 7.63881,-12.21999c2.46363,-2.63386 5.97017,-4.28001 9.86119,-4.28001c1.39426,0 2.73915,0.21136 4.00438,0.6038c12.59461,-3.99757 16.80284,8.62713 16.80284,8.62713c-0.28515,5.05422 1.79326,10.84865 -0.85546,15.16266c-2.26394,3.68732 -7.82147,3.70642 -11.78931,5.43209c-4.48517,1.95067 -8.85253,1.29752 -13.26839,0.10087z" fill="#00b8e2" stroke="none" stroke-width="0.5" stroke-linecap="butt"/></g></g></svg>