<svg version="1.1" xmlns="http://www.w3.org/2000/svg" xmlns:xlink="http://www.w3.org/1999/xlink" width="627.40778" height="504.3698" viewBox="0,0,627.40778,504.3698"><g transform="translate(81.29173,66.67744)"><g data-paper-data="{&quot;isPaintingLayer&quot;:true}" fill-rule="nonzero" stroke-linejoin="miter" stroke-miterlimit="10" stroke-dasharray="" stroke-dashoffset="0" style="mix-blend-mode: normal"><path d="M-81.04173,437.44236v-503.8698h626.90778v503.8698z" fill="#63aa59" stroke="#000000" stroke-width="0.5" stroke-linecap="butt"/><path d="M485.95461,335.11394c0,0 -51.3861,11.6962 -74.38111,-11.62421c-39.76961,-40.33239 -68.2896,-125.67011 -129.67383,-127.27677c-52.19885,-1.36624 -90.05222,140.44387 -132.18857,127.70652c-93.78384,-28.34982 -109.49904,-106.6529 -49.99336,-181.67383c21.57308,-27.19795 -85.49321,-35.60503 -67.82743,-64.326c14.52401,-23.6131 78.0548,-31.56574 99.21306,-47.90781c23.12229,-17.85903 132.90207,11.9937 211.42922,27.25117c43.16452,8.38667 75.49054,6.78063 82.05968,3.49113c25.23756,-12.63775 8.36234,-87.6402 8.36234,-87.6402" fill="none" stroke="#a0a0a0" stroke-width="36.5" stroke-linecap="round"/><path d="M139.08081,162.69919c-2.35443,11.07736 -6.85766,15.20783 -13.61659,23.31059c-2.02082,2.4226 -4.70775,5.38391 -7.44324,6.57206c-0.48696,0.21151 -1.26517,1.52797 -1.67649,1.81961c-2.82679,2.00427 -5.96501,3.98342 -9.41005,4.85835c-1.16724,0.29644 -4.74153,-0.77628 -5.396,-0.93078c-8.53298,-2.01436 -12.37031,-10.01198 -14.29752,-18.07216c-0.98034,-4.10009 2.02398,-8.5611 3.97931,-11.9484c4.51011,-7.81303 8.11759,-14.6558 14.94309,-20.86154c3.14205,-2.85676 6.20842,-7.65492 10.96735,-8.00313c1.78674,-0.87267 3.79472,-1.36243 5.91709,-1.36243c2.92299,0 5.62901,0.92896 7.83893,2.50775c6.61852,4.54011 9.84003,14.36621 8.19411,22.11008z" fill="#00b8e2" stroke="none" stroke-width="0.5" stroke-linecap="butt"/><path d="M210.37053,39.90504c2,-0.66667 3.9382,-1.56019 6,-2c0.11938,-0.02546 0.06934,0.38993 0.1717,0.32344c1.38039,-0.89668 2.36893,-2.46995 3.93114,-2.98859c4.31578,-1.4328 9.60283,-1.02763 14.16623,-1.02763c4.45568,0 9.81687,-0.68988 14.16246,0.17432c3.47619,0.6913 6.64345,2.52688 9.76878,4.19842c2.24511,1.20077 4.99184,1.31876 7.16613,2.64347c1.6912,1.03038 2.96571,2.62523 4.44857,3.93784l3.95406,10.54594c0,0 0,0.96051 -0.25621,2.36913c0.16809,0.85094 0.25621,1.73061 0.25621,2.63087c0,7.45584 -6.04416,13.5 -13.5,13.5h-3c-0.91153,0.41123 -2.00023,0.02135 -3,0c-2.74821,-0.05869 -5.47513,-0.59612 -8.16246,-1.17432c-3.54307,-0.76232 -8.33934,0.52665 -12,0c-1.04335,-0.15011 -1.96949,-0.77828 -3,-1c-1.25185,-0.26935 -2.55704,0.17432 -3.83754,0.17432c-3,0 -6,0 -9,0h-3c0,0 -6.25154,0 -10.2463,-4.25415c-3.58926,-0.66861 -7.53578,-2.90132 -9.56093,-8.97677c-4.26907,-12.80722 8.53815,-17.0763 8.53815,-17.0763c1.22166,-0.36326 2.41404,-0.64861 3.59174,-0.87274c1.37835,-0.78396 2.40826,-1.12726 2.40826,-1.12726z" fill="#00b8e2" stroke="none" stroke-width="0.5" stroke-linecap="butt"/></g></g></svg>