<svg version="1.1" xmlns="http://www.w3.org/2000/svg" xmlns:xlink="http://www.w3.org/1999/xlink" width="9.41896" height="5.4788" viewBox="0,0,9.41896,5.4788"><g transform="translate(-235.29052,-177.29886)"><g data-paper-data="{&quot;isPaintingLayer&quot;:true}" fill-rule="nonzero" stroke-linecap="butt" stroke-linejoin="miter" stroke-miterlimit="10" stroke-dasharray="" stroke-dashoffset="0" style="mix-blend-mode: normal"><path d="M235.92048,182.52767v-0.60938h2.0625v0.60938z" fill="#000000" stroke="#000000" stroke-width="0.5"/><path d="M241.34906,182.25423v-0.5625h2.0625v0.5625z" fill="#000000" stroke="#000000" stroke-width="0.5"/><path d="M241.49191,178.39709v-0.5625h2.0625v0.5625z" fill="#000000" stroke="#000000" stroke-width="0.5"/><path d="M235.92048,178.11137v-0.5625h2.0625v0.5625z" fill="#000000" stroke="#000000" stroke-width="0.5"/><path d="M241.68045,180.87607v0c0.12837,0.39496 0.03372,0.74324 -0.0247,0.89889c-0.41777,0.09313 -0.85139,0.29773 -1.30387,0.42305c-2.07002,0.5746 -4.61971,-0.60188 -4.73207,-2.08914h5.27053c0.01654,0.00143 0.56046,0.05939 0.7901,0.7672z" fill="#000000" stroke="none" stroke-width="0.69834"/><path d="M235.62053,179.89074v0c0.12873,-1.48252 2.68415,-2.6872 4.73162,-2.07457c0.46357,0.13866 0.90112,0.34817 1.31765,0.44783c0.05761,0.17034 0.12909,0.49516 0.01065,0.85954c-0.23332,0.71845 -0.79172,0.7672 -0.79172,0.7672z" fill="#000000" stroke="none" stroke-width="0.69834"/><path d="M244.38562,180.00714v0c0,0.96644 -0.87527,1.71835 -2.32417,1.71835c-0.034,0 -0.06825,0.00125 -0.1027,0.00366c0.04267,-0.16281 0.08373,-0.47109 -0.03319,-0.89889c-0.13017,-0.47655 -0.4396,-0.71389 -0.68678,-0.83054c0.24718,-0.11667 0.55661,-0.35381 0.68678,-0.83028c0.11478,-0.41938 0.08561,-0.70387 0.05019,-0.8547c0.04168,0.00349 0.08346,0.00591 0.12498,0.00591c1.39074,0 2.28489,0.72024 2.28489,1.68649z" fill="#000000" stroke="none" stroke-width="0.69834"/><path d="M242.25577,178.10739v0c1.49343,0 2.45371,0.86265 2.45371,1.9003c0,1.03755 -0.93969,1.93475 -2.49548,1.93475c-0.58097,0 -1.19116,0.3285 -1.83598,0.50759c-2.27354,0.63114 -5.0875,-0.79413 -5.0875,-2.44234c0,-1.6482 2.83168,-3.11731 5.08732,-2.44243c0.67265,0.20129 1.29385,0.54213 1.87794,0.54213zM241.95876,181.72915v0c0.03445,-0.0025 0.06861,-0.00366 0.10279,-0.00366c1.4488,0 2.32408,-0.75191 2.32408,-1.71835c0,-0.96625 -0.89415,-1.68649 -2.28489,-1.68649c-0.04134,0 -0.08311,-0.00242 -0.12498,-0.00591c0.03542,0.15083 0.06441,0.43531 -0.05019,0.8547c-0.13017,0.47638 -0.4396,0.71362 -0.68678,0.83028c0.24718,0.11674 0.55661,0.35399 0.68678,0.83054c0.11692,0.4278 0.07586,0.73608 0.03319,0.89889zM240.35198,177.81619v0c-2.0473,-0.61263 -4.60271,0.59204 -4.73144,2.07457h5.26802c0,0 0.55859,-0.04876 0.79181,-0.7672c0.11836,-0.36438 0.04705,-0.6892 -0.01065,-0.85954c-0.41662,-0.09956 -0.85399,-0.30917 -1.31774,-0.44783zM240.35188,182.19801v0c0.45247,-0.12541 0.8861,-0.33001 1.30405,-0.42332c0.05824,-0.15539 0.15307,-0.50393 0.02452,-0.89862c-0.22965,-0.70781 -0.77357,-0.7656 -0.7901,-0.7672h-5.27053c0.11236,1.48726 2.66196,2.66375 4.73207,2.08914z" fill="#231f20" stroke="none" stroke-width="0.69834"/><text transform="translate(235.88422,180.87168) scale(0.07264,0.07264)" font-size="40" xml:space="preserve" fill="#ffffff" fill-rule="nonzero" stroke="none" stroke-width="1" stroke-linecap="butt" stroke-linejoin="miter" stroke-miterlimit="10" stroke-dasharray="" stroke-dashoffset="0" font-family="Sans Serif" font-weight="normal" text-anchor="start" style="mix-blend-mode: normal"><tspan x="0" dy="0">Ghost</tspan></text></g></g></svg>