<svg version="1.1" xmlns="http://www.w3.org/2000/svg" xmlns:xlink="http://www.w3.org/1999/xlink" width="627.40778" height="504.3698" viewBox="0,0,627.40778,504.3698"><g transform="translate(81.79173,66.92744)"><g data-paper-data="{&quot;isPaintingLayer&quot;:true}" fill-rule="nonzero" stroke-linejoin="miter" stroke-miterlimit="10" stroke-dasharray="" stroke-dashoffset="0" style="mix-blend-mode: normal"><path d="M-81.54173,437.19236v-503.8698h626.90778v503.8698z" fill="#63aa59" stroke="#000000" stroke-width="0.5" stroke-linecap="butt"/><path d="M-3.04539,335.86394c0,0 79.81644,12.36007 107.93459,-8.75547c29.63879,-22.25748 -89.35078,-153.2346 -21.61596,-213.76905c55.37651,-49.48986 40.13894,65.3455 86.41532,126.72511c27.79172,36.86211 121.10457,-156.74542 187.8549,-185.51406c54.7713,-23.60581 52.41115,309.31348 52.41115,309.31348" fill="none" stroke="#a0a0a0" stroke-width="31.5" stroke-linecap="round"/><path d="M394.96464,333.0141l30.25,-0.47266" fill="none" stroke="#ffc7c7" stroke-width="1.5" stroke-linecap="round"/><text transform="translate(397.21464,342.63702) scale(0.19664,0.19664)" font-size="40" xml:space="preserve" fill="#ffffff" fill-rule="nonzero" stroke="none" stroke-width="1" stroke-linecap="butt" stroke-linejoin="miter" stroke-miterlimit="10" stroke-dasharray="" stroke-dashoffset="0" font-family="Sans Serif" font-weight="normal" text-anchor="start" style="mix-blend-mode: normal"><tspan x="0" dy="0">FINISH</tspan></text><path d="M351.29777,111.4772c0,-0.54721 0.03256,-1.08682 0.09584,-1.617c-0.86229,-1.77817 -1.34584,-3.77412 -1.34584,-5.883c0,-1.69374 0.31191,-3.31462 0.88143,-4.80835c0.24012,-1.07885 0.59152,-2.10504 1.22794,-2.99634c2.704,-3.78687 6.57039,-5.48662 10.58722,-5.6718c0.26581,-0.0156 0.53368,-0.02351 0.80341,-0.02351c0.42652,0 0.84843,0.01978 1.26484,0.05847c4.03665,0.31578 8.05076,2.04682 11.03189,4.62143c6.52274,5.63327 15.52553,18.77671 17.57894,26.99037c0.96078,3.84314 1.50171,7.90292 2.37433,11.82973c0.25019,1.12585 0.23533,2.62546 0.25,3.75c0.00899,0.68924 1.94936,22.56562 -2.35937,27.55469c-8.88904,10.29257 -20.82816,6.77341 -28.46072,-2.25796c-3.38251,-4.00242 -3.73327,-8.60207 -5.31648,-13.34303c-1.80594,-5.40792 -3.97996,-10.93337 -5.38819,-16.56632c-0.33392,-1.33567 -3.14622,-9.30365 -3.15368,-9.5007c-0.08341,-2.20261 0.4866,-4.38816 1.15158,-6.51377c-0.78532,-1.71184 -1.22314,-3.61625 -1.22314,-5.62291z" fill="#00b8e2" stroke="none" stroke-width="0.5" stroke-linecap="butt"/><path d="M106.34991,109.30721c1.73243,0.52919 2.91967,1.29624 3.92748,2.20463c1.51333,1.05869 2.79952,2.41981 3.77087,3.99566c4.50251,4.35301 6.79764,8.04653 6.09036,14.49204c-0.95242,8.67945 -10.63749,12.86307 -17.98552,14.05549c-4.17131,0.67691 -6.7792,2.19856 -11.30306,-0.3989c-8.22328,-4.72154 -8.46449,-16.44036 -1.75297,-22.23666c0.03184,-0.37357 0.0789,-0.74279 0.14055,-1.10706c-0.2583,-3.35792 1.88354,-6.24219 4.86614,-8.26489c2.07019,-1.66162 4.64064,-2.72557 7.44956,-2.93009c1.76243,-0.27063 3.43577,-0.2259 4.79659,0.18977z" fill="#00b8e2" stroke="none" stroke-width="0.5" stroke-linecap="butt"/></g></g></svg>